<svg width="70" height="69" viewBox="0 0 70 69" fill="none" xmlns="http://www.w3.org/2000/svg">
<path d="M47.1285 24.5572C48.6838 26.5515 48.7278 28.0925 47.2915 31.6246C45.7504 28.1518 45.4891 26.4954 47.1285 24.5572Z" fill="#252012"/>
<path fill-rule="evenodd" clip-rule="evenodd" d="M66.1618 59.4848C60.6248 70.268 40.1481 68.2602 29.2364 66.7267C20.8014 65.5412 2.35495 63.7018 0.604394 47.9856C-0.427177 38.7243 9.10404 24.4243 10.3202 21.8028C12.3354 17.4589 8.46449 1.77265 12.4112 0.892717C17.2441 -0.184784 20.7061 7.44544 23.8648 12.1713C24.2582 12.6544 25.0782 12.7978 26.0533 12.7544C33.6137 11.5643 37.7116 11.8303 44.8362 13.5308C52.6686 14.6316 61.4816 -2.9038 67.291 1.9064C71.7548 5.60253 62.9503 18.5393 65.9891 29.6265C67.8393 36.3771 69.7419 52.5126 66.1618 59.4848ZM20.859 36.4736C19.504 37.71 21.9167 30.89 24.5268 30.2899C26.5727 29.8195 31.8659 30.0439 33.6981 31.5788C34.9196 32.6023 34.7143 37.7964 33.35 36.6406C28.2672 32.335 26.4292 43.9556 29.3776 48.7209C30.3076 50.2634 32.0125 52.0135 33.2486 53.2825C34.2901 54.3516 34.999 55.0792 34.6314 55.0535C32.7648 54.3271 31.8403 53.6665 29.6482 52.1002L29.591 52.0594C28.8587 51.5362 28.305 51.0967 27.7396 50.6478L27.7395 50.6477L27.7393 50.6476C27.177 50.2012 26.603 49.7456 25.8302 49.1893C25.133 48.6875 24.2796 49.4457 23.489 50.1481C23.2849 50.3294 23.085 50.507 22.8931 50.6583C20.4405 53.3007 17.1513 55.0831 17.3131 53.9317C17.3749 53.492 18.1612 52.6919 19.1007 51.736C20.187 50.6307 21.4781 49.317 22.0906 48.1112C23.695 44.9526 26.1056 31.6859 20.859 36.4736ZM46.7827 34.0626C49.9949 33.938 53.9453 32.7479 54.4126 29.4232C54.8799 26.0985 51.4087 22.6772 48.4414 22.2602C44.2446 21.6704 40.6259 24.5444 40.1587 27.8692C39.6914 31.1939 43.5706 34.1873 46.7827 34.0626ZM14.9238 31.34C18.0179 31.7748 22.5971 30.4206 22.9928 27.6051C23.3885 24.7896 22.0526 21.9871 18.9585 21.5523C15.8645 21.1174 12.5076 24.2479 11.957 26.0541C11.261 28.3369 11.8298 30.9051 14.9238 31.34Z" fill="#252012"/>
<path fill-rule="evenodd" clip-rule="evenodd" d="M54.4126 29.4232C53.9453 32.7479 49.9949 33.938 46.7827 34.0626C43.5706 34.1873 39.6914 31.1939 40.1587 27.8692C40.6259 24.5444 44.2446 21.6704 48.4414 22.2602C51.4087 22.6772 54.8799 26.0985 54.4126 29.4232ZM47.1285 24.5572C48.6838 26.5515 48.7278 28.0925 47.2915 31.6246C45.7504 28.1518 45.4891 26.4954 47.1285 24.5572Z" fill="#D9F775"/>
<path d="M26.1146 38.5321C26.1556 41.8185 25.9063 47.9808 22.8931 50.6583C23.085 50.507 23.2849 50.3294 23.489 50.1481C24.2796 49.4457 25.133 48.6875 25.8302 49.1893C26.603 49.7456 27.177 50.2012 27.7393 50.6476L27.7395 50.6477L27.7396 50.6478C28.305 51.0967 28.8587 51.5362 29.591 52.0594C25.7423 48.9281 26.1232 45.8928 26.488 42.9862C26.5761 42.2841 26.6632 41.5896 26.6896 40.903C26.784 38.4479 26.8634 36.3837 26.3572 36.2104C26.0845 36.1169 26.0963 37.0641 26.1146 38.5321Z" fill="#252012"/>
<path d="M24.5268 30.2899C21.9167 30.89 19.504 37.71 20.859 36.4736C26.1056 31.6859 23.695 44.9526 22.0906 48.1112C21.4781 49.317 20.187 50.6307 19.1007 51.736C18.1612 52.6919 17.3749 53.492 17.3131 53.9317C17.1513 55.0831 20.4405 53.3007 22.8931 50.6583C25.9063 47.9808 26.1556 41.8185 26.1146 38.5321C26.0963 37.0641 26.0845 36.1169 26.3572 36.2104C26.8634 36.3837 26.784 38.4479 26.6896 40.903C26.6632 41.5896 26.5761 42.2841 26.488 42.9862C26.1232 45.8928 25.7423 48.9281 29.591 52.0594L29.6482 52.1002C31.8403 53.6665 32.7648 54.3271 34.6314 55.0535C34.999 55.0792 34.2901 54.3516 33.2486 53.2825C32.0125 52.0135 30.3076 50.2634 29.3776 48.7209C26.4292 43.9556 28.2672 32.335 33.35 36.6406C34.7143 37.7964 34.9196 32.6023 33.6981 31.5788C31.8659 30.0439 26.5727 29.8195 24.5268 30.2899Z" fill="#37312C"/>
<path fill-rule="evenodd" clip-rule="evenodd" d="M47.1285 24.5572C48.6838 26.5515 48.7278 28.0925 47.2915 31.6246C45.7504 28.1518 45.4891 26.4954 47.1285 24.5572Z" fill="#37312C"/>
<path fill-rule="evenodd" clip-rule="evenodd" d="M14.9238 31.34C18.0179 31.7748 22.5971 30.4206 22.9928 27.6051C23.3885 24.7896 22.0526 21.9871 18.9585 21.5523C15.8645 21.1174 12.5076 24.2479 11.957 26.0541C11.261 28.3369 11.8298 30.9051 14.9238 31.34ZM16.4736 29.9034C18.0389 26.9088 18.2801 25.0899 17.7238 23.3109C15.7541 26.0778 15.9167 27.9228 16.4736 29.9034Z" fill="#D9F775"/>
<path d="M16.4736 29.9034C18.0389 26.9088 18.2801 25.0899 17.7238 23.3109C15.7541 26.0778 15.9167 27.9228 16.4736 29.9034Z" fill="#37312C"/>
<path d="M0.604394 47.9856L0.107467 48.0409L0.604394 47.9856ZM66.1618 59.4848L66.6066 59.7132L66.1618 59.4848ZM12.4112 0.892717L12.52 1.38074L12.4112 0.892717ZM23.8648 12.1713L23.4492 12.4492L23.4623 12.4688L23.4771 12.487L23.8648 12.1713ZM10.3202 21.8028L9.86666 21.5924L10.3202 21.8028ZM26.0533 12.7544L26.0755 13.2539L26.1035 13.2527L26.1311 13.2483L26.0533 12.7544ZM44.8362 13.5308L44.7201 14.0172L44.7431 14.0227L44.7666 14.0259L44.8362 13.5308ZM67.291 1.9064L67.6098 1.52128L67.291 1.9064ZM65.9891 29.6265L65.5069 29.7587L65.9891 29.6265ZM20.859 36.4736L20.5219 36.1042L20.859 36.4736ZM24.5268 30.2899L24.4148 29.8026L24.5268 30.2899ZM33.6981 31.5788L34.0192 31.1956L33.6981 31.5788ZM33.35 36.6406L33.6731 36.2591L33.35 36.6406ZM34.6314 55.0535L34.4501 55.5194L34.5208 55.5469L34.5964 55.5522L34.6314 55.0535ZM25.8302 49.1893L26.1223 48.7835L26.1223 48.7835L25.8302 49.1893ZM22.0906 48.1112L22.5363 48.3376L22.0906 48.1112ZM26.3572 36.2104L26.5192 35.7373L26.3572 36.2104ZM22.8931 50.6583L22.561 50.2845L22.543 50.3005L22.5266 50.3181L22.8931 50.6583ZM29.591 52.0594L29.3004 52.4662L29.3004 52.4662L29.591 52.0594ZM26.1146 38.5321L25.6147 38.5383L26.1146 38.5321ZM26.6896 40.903L26.19 40.8838L26.6896 40.903ZM29.3776 48.7209L29.8058 48.4628L29.8028 48.4579L29.3776 48.7209ZM47.1285 24.5572L47.5228 24.2497C47.4302 24.131 47.289 24.0603 47.1385 24.0573C46.9879 24.0543 46.844 24.1193 46.7468 24.2343L47.1285 24.5572ZM47.2915 31.6246L46.8345 31.8274C46.9159 32.0107 47.0989 32.1277 47.2994 32.1245C47.4999 32.1213 47.6792 31.9987 47.7547 31.8129L47.2915 31.6246ZM11.957 26.0541L12.4353 26.1999L11.957 26.0541ZM17.7238 23.3109L18.201 23.1617C18.1443 22.9805 17.9898 22.847 17.8023 22.8171C17.6148 22.7873 17.4265 22.8663 17.3164 23.0209L17.7238 23.3109ZM16.4736 29.9034L15.9922 30.0388C16.0477 30.2361 16.2179 30.3795 16.4218 30.4007C16.6256 30.422 16.8218 30.3167 16.9167 30.1351L16.4736 29.9034ZM29.6482 52.1002L29.9389 51.6934L29.9389 51.6934L29.6482 52.1002ZM19.1007 51.736L19.4573 52.0865L19.1007 51.736ZM23.489 50.1481L23.1569 49.7744L23.489 50.1481ZM27.7393 50.6476L27.4284 51.0393L27.4367 51.0456L27.7393 50.6476ZM27.7395 50.6477L28.0564 50.261L28.0494 50.2552L28.0421 50.2497L27.7395 50.6477ZM27.7396 50.6478L27.4227 51.0346L27.4288 51.0395L27.7396 50.6478ZM33.2486 53.2825L32.8905 53.6314L32.8905 53.6314L33.2486 53.2825ZM26.488 42.9862L26.9841 43.0484L26.488 42.9862ZM65.717 59.2564C63.0757 64.4003 56.8191 66.5746 49.6692 67.2266C42.5552 67.8752 34.7567 66.9976 29.306 66.2315L29.1668 67.2218C34.6277 67.9893 42.5234 68.8823 49.76 68.2224C56.9607 67.5659 63.7109 65.3525 66.6066 59.7132L65.717 59.2564ZM29.306 66.2315C25.065 65.6355 18.4223 64.8862 12.614 62.347C6.82825 59.8178 1.95007 55.5502 1.10132 47.9302L0.107467 48.0409C1.00927 56.1372 6.22962 60.6475 12.2135 63.2633C18.1748 65.8693 24.9728 66.6324 29.1668 67.2218L29.306 66.2315ZM12.52 1.38074C14.6194 0.91268 16.5139 2.30822 18.3733 4.66541C19.2869 5.82364 20.1545 7.16646 20.9972 8.52706C21.8341 9.8782 22.6531 11.2581 23.4492 12.4492L24.2805 11.8935C23.4972 10.7215 22.699 9.37551 21.8473 8.0005C21.0015 6.63496 20.1093 5.25146 19.1584 4.04609C17.2889 1.67608 15.036 -0.204747 12.3024 0.404699L12.52 1.38074ZM26.0311 12.2549C25.5692 12.2754 25.1718 12.2499 24.8583 12.1742C24.5428 12.0981 24.3554 11.9819 24.2525 11.8556L23.4771 12.487C23.7677 12.8438 24.1869 13.0409 24.6236 13.1463C25.0622 13.2522 25.5623 13.2767 26.0755 13.2539L26.0311 12.2549ZM12.3024 0.404699C11.6236 0.556049 11.1497 1.02512 10.8289 1.63195C10.5131 2.22916 10.3224 2.99805 10.2073 3.85362C9.97683 5.56715 10.0309 7.78924 10.142 10.0731C10.2541 12.3776 10.4244 14.749 10.4421 16.831C10.451 17.8688 10.4215 18.8192 10.3299 19.6376C10.2376 20.4619 10.0855 21.1205 9.86666 21.5924L10.7738 22.0132C11.0587 21.3991 11.2265 20.6173 11.3237 19.7488C11.4215 18.8745 11.4511 17.8798 11.4421 16.8225C11.4241 14.7141 11.2512 12.2945 11.1408 10.0245C11.0294 7.73374 10.9817 5.5978 11.1984 3.98693C11.3069 3.1803 11.4771 2.54541 11.7129 2.09938C11.9437 1.66298 12.2122 1.44937 12.52 1.38074L12.3024 0.404699ZM1.10132 47.9302C0.853553 45.7058 1.23837 43.1465 1.997 40.4935C2.75424 37.8454 3.87478 35.1349 5.07096 32.619C6.26655 30.1043 7.53317 27.7933 8.57921 25.9436C9.61314 24.1153 10.4585 22.6929 10.7738 22.0132L9.86666 21.5924C9.57387 22.2235 8.77174 23.5716 7.70876 25.4513C6.65788 27.3096 5.37814 29.6439 4.16784 32.1896C2.95814 34.734 1.81329 37.4988 1.03554 40.2186C0.259192 42.9335 -0.16055 45.6347 0.107467 48.0409L1.10132 47.9302ZM44.7666 14.0259C46.9188 14.3284 49.0728 13.3454 51.119 11.912C53.1732 10.4729 55.2215 8.50408 57.1632 6.69324C59.1279 4.86103 60.9716 3.20263 62.67 2.28848C63.5136 1.8344 64.2854 1.5846 64.9899 1.56987C65.6794 1.55546 66.3362 1.765 66.9721 2.29152L67.6098 1.52128C66.7934 0.845245 65.904 0.550542 64.969 0.570091C64.0489 0.589328 63.118 0.911706 62.196 1.40793C60.3633 2.39441 58.425 4.14914 56.4812 5.96191C54.5145 7.79604 52.5278 9.70405 50.5452 11.0929C48.5545 12.4875 46.6698 13.2836 44.9058 13.0357L44.7666 14.0259ZM65.5069 29.7587C66.4207 33.0929 67.3543 38.777 67.6123 44.4951C67.7412 47.3521 67.7009 50.2059 67.4086 52.7707C67.1155 55.3422 66.5727 57.5901 65.717 59.2564L66.6066 59.7132C67.541 57.8934 68.1029 55.5098 68.4022 52.884C68.7022 50.2515 68.7418 47.3422 68.6113 44.45C68.3505 38.6697 67.4077 32.9108 66.4713 29.4944L65.5069 29.7587ZM66.4713 29.4944C64.9921 24.0972 66.3908 18.2202 67.6597 13.1154C68.2871 10.5913 68.8876 8.23397 69.0419 6.27712C69.1953 4.3298 68.922 2.60774 67.6098 1.52128L66.9721 2.29152C67.8919 3.05313 68.1919 4.33421 68.0449 6.19855C67.8988 8.05336 67.3251 10.3162 66.6892 12.8742C65.4315 17.9337 63.9474 24.0686 65.5069 29.7587L66.4713 29.4944ZM20.5219 36.1042C20.4542 36.1661 20.4488 36.1532 20.4968 36.1379C20.5271 36.1283 20.5942 36.1132 20.6811 36.1322C20.7755 36.1529 20.8517 36.2048 20.9023 36.2647C20.9823 36.3593 20.9727 36.4395 20.9699 36.3872C20.9683 36.3559 20.9709 36.2933 20.987 36.1928C21.0528 35.784 21.2874 35.0768 21.6589 34.2822C22.0272 33.4947 22.5109 32.6624 23.0502 31.9983C23.6026 31.3181 24.1534 30.8888 24.6388 30.7772L24.4148 29.8026C23.5952 29.991 22.8656 30.6393 22.2739 31.3679C21.669 32.1128 21.1449 33.0207 20.7531 33.8586C20.3645 34.6895 20.0868 35.493 19.9997 36.0339C19.9777 36.171 19.9645 36.3107 19.9713 36.4398C19.977 36.5478 20.0001 36.7464 20.1386 36.9103C20.2186 37.0048 20.3305 37.0792 20.4675 37.1091C20.5969 37.1374 20.7131 37.1185 20.7995 37.091C20.9598 37.0401 21.0944 36.9356 21.196 36.8429L20.5219 36.1042ZM24.6388 30.7772C25.5875 30.5591 27.3615 30.4935 29.1406 30.6797C30.024 30.7721 30.8903 30.9248 31.6396 31.1437C32.3973 31.365 32.9956 31.6426 33.377 31.9621L34.0192 31.1956C33.4844 30.7476 32.7341 30.4216 31.92 30.1838C31.0976 29.9436 30.1693 29.7818 29.2446 29.6851C27.4076 29.4929 25.512 29.5503 24.4148 29.8026L24.6388 30.7772ZM33.377 31.9621C33.5458 32.1036 33.7346 32.4739 33.862 33.0687C33.9829 33.6333 34.027 34.2977 33.9945 34.9C33.961 35.5208 33.85 35.9984 33.7162 36.2355C33.6488 36.3551 33.6251 36.3269 33.6856 36.3118C33.7678 36.2913 33.7771 36.3471 33.6731 36.2591L33.0268 37.0221C33.2639 37.223 33.5781 37.3694 33.9279 37.282C34.2559 37.2001 34.4626 36.9478 34.5872 36.7269C34.8375 36.2832 34.9573 35.615 34.993 34.9539C35.0297 34.2742 34.9814 33.5204 34.8398 32.8593C34.7047 32.2286 34.4611 31.5658 34.0192 31.1956L33.377 31.9621ZM22.5363 48.3376C22.9659 47.492 23.4281 46.0223 23.8002 44.3987C24.1744 42.7657 24.4679 40.9303 24.5434 39.3362C24.5811 38.5397 24.5651 37.7891 24.4722 37.1473C24.3812 36.5189 24.2082 35.9323 23.8837 35.5192C23.7155 35.305 23.5005 35.1299 23.2325 35.0303C22.9639 34.9306 22.6762 34.9194 22.3831 34.9798C21.8172 35.0964 21.1994 35.486 20.5219 36.1042L21.196 36.8429C21.8301 36.2642 22.2848 36.0211 22.585 35.9592C22.725 35.9303 22.8188 35.9434 22.8843 35.9677C22.9504 35.9923 23.022 36.041 23.0972 36.1368C23.2595 36.3434 23.4 36.7209 23.4825 37.2906C23.5631 37.847 23.5805 38.5288 23.5445 39.2889C23.4726 40.8077 23.1905 42.5821 22.8254 44.1753C22.4582 45.778 22.0174 47.1511 21.6448 47.8848L22.5363 48.3376ZM23.2252 51.032C24.8585 49.5807 25.7007 47.2338 26.1404 44.9168C26.5835 42.5822 26.6352 40.1812 26.6146 38.5259L25.6147 38.5383C25.635 40.1694 25.5826 42.4928 25.1579 44.7303C24.73 46.9854 23.9409 49.0583 22.561 50.2845L23.2252 51.032ZM26.6146 38.5259C26.6053 37.7818 26.5985 37.2036 26.6255 36.8209C26.6397 36.6201 26.6604 36.528 26.6699 36.5028C26.6758 36.4869 26.6561 36.5551 26.5728 36.6192C26.4545 36.7103 26.3061 36.7214 26.1952 36.6834L26.5192 35.7373C26.3401 35.676 26.1324 35.6962 25.9626 35.827C25.8279 35.9308 25.7645 36.069 25.7335 36.1518C25.669 36.3238 25.6427 36.5427 25.628 36.7505C25.5973 37.185 25.6056 37.8144 25.6147 38.5383L26.6146 38.5259ZM26.1952 36.6834C26.1061 36.6529 26.0794 36.5971 26.0905 36.6158C26.1014 36.6343 26.1249 36.6859 26.1501 36.7895C26.2002 36.9959 26.2335 37.3064 26.249 37.7197C26.2797 38.541 26.2375 39.6488 26.19 40.8838L27.1892 40.9223C27.2362 39.7022 27.2808 38.5503 27.2483 37.6823C27.2321 37.251 27.1962 36.8596 27.1218 36.5534C27.0847 36.4008 27.0321 36.2435 26.9509 36.1063C26.8698 35.9693 26.7348 35.8112 26.5192 35.7373L26.1952 36.6834ZM29.8028 48.4579C29.12 47.3543 28.6959 45.8173 28.5373 44.1696C28.3792 42.5271 28.4893 40.8192 28.8377 39.3982C29.1925 37.9509 29.7671 36.9095 30.4469 36.4581C30.7686 36.2445 31.1198 36.1577 31.52 36.2218C31.9329 36.2879 32.4357 36.5214 33.0268 37.0221L33.6731 36.2591C32.9935 35.6834 32.3271 35.3382 31.6781 35.2343C31.0164 35.1284 30.4131 35.2802 29.8938 35.625C28.8916 36.2905 28.2379 37.6448 27.8665 39.1601C27.4885 40.7017 27.3743 42.5234 27.5419 44.2654C27.7091 46.0023 28.161 47.7049 28.9524 48.984L29.8028 48.4579ZM53.9175 29.3536C53.7139 30.8019 52.757 31.8143 51.4022 32.4963C50.0395 33.1823 48.3258 33.5024 46.7633 33.563L46.8021 34.5623C48.4518 34.4982 50.3194 34.161 51.8518 33.3896C53.392 32.6142 54.644 31.3693 54.9077 29.4928L53.9175 29.3536ZM46.7633 33.563C45.3068 33.6196 43.6547 32.963 42.4201 31.8831C41.1851 30.8028 40.4515 29.3783 40.6538 27.9387L39.6635 27.7996C39.3986 29.6848 40.3709 31.4193 41.7617 32.6358C43.1529 33.8526 45.0464 34.6304 46.8021 34.5623L46.7633 33.563ZM40.6538 27.9387C41.0792 24.9119 44.4234 22.2004 48.3719 22.7553L48.511 21.7651C44.0658 21.1403 40.1727 24.177 39.6635 27.7996L40.6538 27.9387ZM48.3719 22.7553C49.712 22.9437 51.2207 23.8274 52.3418 25.0842C53.4629 26.3408 54.1238 27.8859 53.9175 29.3536L54.9077 29.4928C55.1687 27.6359 54.3276 25.8079 53.0881 24.4185C51.8486 23.0292 50.1381 21.9937 48.511 21.7651L48.3719 22.7553ZM46.7342 24.8647C47.4702 25.8084 47.8095 26.5912 47.832 27.5262C47.8552 28.4934 47.5421 29.6809 46.8284 31.4362L47.7547 31.8129C48.4772 30.0362 48.8602 28.6871 48.8317 27.5022C48.8024 26.2851 48.3421 25.3003 47.5228 24.2497L46.7342 24.8647ZM46.7468 24.2343C45.8618 25.2806 45.4576 26.2994 45.5179 27.5397C45.5759 28.7329 46.0642 30.0917 46.8345 31.8274L47.7485 31.4217C46.9776 29.6846 46.5648 28.4788 46.5167 27.4911C46.471 26.5505 46.7558 25.772 47.5103 24.8801L46.7468 24.2343ZM22.4977 27.5355C22.3377 28.6738 21.3085 29.6139 19.7836 30.2275C18.2812 30.832 16.4511 31.0497 14.9934 30.8448L14.8543 31.8351C16.4907 32.0651 18.4972 31.823 20.1568 31.1553C21.7939 30.4965 23.2522 29.3518 23.4879 27.6746L22.4977 27.5355ZM14.9934 30.8448C13.5945 30.6482 12.8379 29.9908 12.4751 29.1848C12.0982 28.3476 12.1099 27.2671 12.4353 26.1999L11.4787 25.9083C11.1081 27.1239 11.0562 28.4689 11.5632 29.5953C12.0843 30.7528 13.1591 31.5969 14.8543 31.8351L14.9934 30.8448ZM12.4353 26.1999C12.6668 25.4405 13.5502 24.2867 14.8006 23.3653C16.0432 22.4497 17.5246 21.8557 18.8889 22.0474L19.0281 21.0571C17.2984 20.814 15.5543 21.5678 14.2074 22.5603C12.8682 23.547 11.7979 24.8615 11.4787 25.9083L12.4353 26.1999ZM18.8889 22.0474C20.2848 22.2436 21.2621 22.9645 21.8568 23.9452C22.4586 24.9376 22.6823 26.222 22.4977 27.5355L23.4879 27.6746C23.699 26.1727 23.4525 24.648 22.7118 23.4267C21.964 22.1935 20.7263 21.2958 19.0281 21.0571L18.8889 22.0474ZM16.9167 30.1351C18.5116 27.0838 18.8134 25.1203 18.201 23.1617L17.2465 23.4601C17.7467 25.0596 17.5662 26.7339 16.0305 29.6718L16.9167 30.1351ZM26.1311 13.2483C33.6228 12.0691 37.6547 12.3307 44.7201 14.0172L44.9523 13.0445C37.7685 11.3298 33.6047 11.0596 25.9756 12.2605L26.1311 13.2483ZM16.818 53.8622C16.7832 54.1093 16.8275 54.4325 17.1163 54.6377C17.3562 54.8081 17.6443 54.801 17.8428 54.7725C18.2643 54.712 18.805 54.4743 19.3703 54.1521C20.5257 53.4934 22.0008 52.3547 23.2596 50.9984L22.5266 50.3181C21.3328 51.6043 19.937 52.678 18.8751 53.2833C18.3318 53.593 17.9272 53.7502 17.7008 53.7827C17.5754 53.8006 17.6139 53.7645 17.6954 53.8224C17.8257 53.915 17.8025 54.042 17.8082 54.0013L16.818 53.8622ZM34.8127 54.5875C33.0111 53.8864 32.1324 53.2607 29.9389 51.6934L29.3575 52.5071C31.5482 54.0723 32.5185 54.7677 34.4501 55.5194L34.8127 54.5875ZM29.9389 51.6934L29.8817 51.6526L29.3004 52.4662L29.3575 52.5071L29.9389 51.6934ZM29.9389 51.6934C29.9199 51.6799 29.9008 51.6662 29.8817 51.6526L29.3004 52.4662C29.3195 52.4799 29.3386 52.4935 29.3575 52.5071L29.9389 51.6934ZM21.6448 47.8848C21.075 49.0064 19.85 50.2603 18.7441 51.3856L19.4573 52.0865C20.524 51.0011 21.8811 49.6277 22.5363 48.3376L21.6448 47.8848ZM18.7441 51.3856C18.2784 51.8594 17.8336 52.3117 17.4985 52.7016C17.3307 52.897 17.1803 53.0882 17.0652 53.2682C16.9562 53.4385 16.8486 53.6443 16.818 53.8622L17.8082 54.0013C17.8076 54.0059 17.8092 53.9913 17.8261 53.9534C17.8424 53.9167 17.8684 53.8682 17.9076 53.807C17.9866 53.6834 18.1031 53.5324 18.257 53.3533C18.5654 52.9943 18.9835 52.5686 19.4573 52.0865L18.7441 51.3856ZM23.2026 51.051C23.4083 50.8889 23.6196 50.7009 23.821 50.5219L23.1569 49.7744C22.9502 49.958 22.7618 50.1252 22.5836 50.2655L23.2026 51.051ZM23.821 50.5219C24.2297 50.1588 24.5943 49.8387 24.9314 49.6575C25.2578 49.4821 25.4166 49.5076 25.5381 49.5951L26.1223 48.7835C25.5467 48.3691 24.9302 48.5229 24.4579 48.7767C23.9963 49.0248 23.5388 49.435 23.1569 49.7744L23.821 50.5219ZM25.5381 49.5951C26.3005 50.1439 26.8665 50.5931 27.4285 51.0392L28.0502 50.256C27.4875 49.8093 26.9055 49.3472 26.1223 48.7835L25.5381 49.5951ZM27.4367 51.0456L27.4368 51.0457L28.0421 50.2497L28.042 50.2496L27.4367 51.0456ZM27.4226 51.0345L27.4227 51.0346L28.0565 50.2611L28.0564 50.261L27.4226 51.0345ZM27.4288 51.0395C27.9943 51.4884 28.5568 51.9349 29.3004 52.4662L29.8817 51.6526C29.1607 51.1374 28.6158 50.7049 28.0505 50.2562L27.4288 51.0395ZM34.5964 55.5522C34.6708 55.5575 34.9518 55.568 35.1289 55.3167C35.2992 55.0752 35.2075 54.8213 35.184 54.7596C35.1188 54.5889 34.9769 54.407 34.8518 54.2576C34.5752 53.9271 34.1209 53.4613 33.6068 52.9336L32.8905 53.6314C33.4179 54.1728 33.8388 54.6053 34.085 54.8995C34.2214 55.0624 34.2528 55.1244 34.2498 55.1163C34.2465 55.1077 34.2323 55.0697 34.23 55.0117C34.2274 54.9499 34.2382 54.8446 34.3116 54.7405C34.3862 54.6346 34.4852 54.5873 34.5517 54.5685C34.6123 54.5513 34.6565 54.554 34.6664 54.5547L34.5964 55.5522ZM33.6068 52.9336C32.3575 51.6512 30.6996 49.9453 29.8058 48.4628L28.9494 48.9791C29.9155 50.5815 31.6674 52.3759 32.8905 53.6314L33.6068 52.9336ZM16.9549 29.7681C16.6836 28.8031 16.5238 27.9227 16.6471 26.966C16.7701 26.0119 17.1813 24.9351 18.1311 23.6009L17.3164 23.0209C16.2966 24.4536 15.8042 25.6828 15.6553 26.8381C15.5067 27.9908 15.7067 29.0231 15.9922 30.0388L16.9549 29.7681ZM26.19 40.8838C26.1646 41.5451 26.0804 42.2179 25.9918 42.9239L26.9841 43.0484C27.0717 42.3504 27.1619 41.6341 27.1892 40.9223L26.19 40.8838ZM25.9918 42.9239C25.8111 44.3644 25.6092 45.936 25.9716 47.5482C26.3396 49.1852 27.276 50.8205 29.2755 52.4473L29.9066 51.6716C28.0573 50.167 27.2597 48.7189 26.9472 47.3289C26.6291 45.9139 26.8001 44.5146 26.9841 43.0484L25.9918 42.9239Z" fill="#252012"/>
</svg>
