<svg width="14" height="13" viewBox="0 0 14 13" fill="none" xmlns="http://www.w3.org/2000/svg">
    <path fill-rule="evenodd" clip-rule="evenodd" d="M12.6961 10.6575C11.744 12.5117 8.22316 12.1664 6.34697 11.9027C4.89663 11.6989 1.72488 11.3826 1.42388 8.68034C1.24651 7.08792 2.88534 4.62913 3.09446 4.17837C3.44096 3.43147 2.77538 0.734321 3.45399 0.583023C4.28498 0.397754 4.88025 1.70972 5.42337 2.5223C5.49101 2.60537 5.632 2.63002 5.79966 2.62256C7.09963 2.41794 7.80423 2.46367 9.02925 2.75606C10.376 2.94533 11.8913 -0.0697631 12.8902 0.757319C13.6577 1.39284 12.1439 3.61724 12.6664 5.52362C12.9845 6.68433 13.3116 9.45873 12.6961 10.6575Z" fill="#5A110C" stroke="#5A110C"/>
</svg>
